# xmcd CD database file
#
# Track frame offsets:
#	150
#	22967
#	38831
#	61872
#	82342
#	103564
#	124980
#	138491
#	159476
#	189942
#	203418
#	216482
#	229121
#	247479
#	268688
#	288913
#
# Disc length: 4180 seconds
#
# Revision: 0
# Processed by: cddbd v1.5.2PL0 Copyright (c) Steve Scherf et al.
# Submitted via: CDex 1.51
#
DISCID=eb105210
DTITLE=Peter Green - The Anthology [CD4)
DYEAR=2008
DGENRE=Blues
TTITLE0=Big Change Is Gonna Come
TTITLE1=I'm A Steady Rollin' Man (feat. Otis Rush)
TTITLE2=It Takes Time
TTITLE3=Don't Walk Away
TTITLE4=Heart Of Stone
TTITLE5=Love In Vain Blues
TTITLE6=From Four Until Late (feat. Dr John)
TTITLE7=I'm Ready For You
TTITLE8=Cruel Contradictions
TTITLE9=Me And The Devil Blues
TTITLE10=Cross Road Blues (feat. Buddy Guy)
TTITLE11=Dead Shrimp Blues (feat. Hubert Sumlin)
TTITLE12=Travelling Riverside Blues (feat. Joe Louis Walker and Honey Boy Edwards)
TTITLE13=Time Keeps Slipping Away
TTITLE14=Look Out For Yourself
TTITLE15=Albatross
EXTD=YEAR: 2008
EXTT0=
EXTT1=
EXTT2=
EXTT3=
EXTT4=
EXTT5=
EXTT6=
EXTT7=
EXTT8=
EXTT9=
EXTT10=
EXTT11=
EXTT12=
EXTT13=
EXTT14=
EXTT15=
PLAYORDER=
